<svg xmlns="http://www.w3.org/2000/svg" width="1600" height="1000" viewBox="0 0 1600 1000" fill="none">
  <defs>
    <filter id="grain" x="-20%" y="-20%" width="140%" height="140%">
      <feTurbulence type="fractalNoise" baseFrequency=".72" numOctaves="3" seed="19"/>
      <feColorMatrix values="1 0 0 0 0
                             0 1 0 0 0
                             0 0 1 0 0
                             0 0 0 .08 0"/>
    </filter>
    <filter id="blur40"><feGaussianBlur stdDeviation="40"/></filter>
    <linearGradient id="mintTrail" x1="50" y1="160" x2="1450" y2="820" gradientUnits="userSpaceOnUse">
      <stop stop-color="#72DDAE" stop-opacity=".06"/>
      <stop offset=".42" stop-color="#72DDAE" stop-opacity=".26"/>
      <stop offset="1" stop-color="#72DDAE" stop-opacity=".03"/>
    </linearGradient>
    <linearGradient id="warmTrail" x1="1500" y1="120" x2="350" y2="850" gradientUnits="userSpaceOnUse">
      <stop stop-color="#F1D34F" stop-opacity=".08"/>
      <stop offset=".55" stop-color="#F1D34F" stop-opacity=".02"/>
      <stop offset="1" stop-color="#F1D34F" stop-opacity="0"/>
    </linearGradient>
  </defs>

  <g opacity=".7" filter="url(#blur40)">
    <ellipse cx="250" cy="160" rx="210" ry="120" fill="#72DDAE" fill-opacity=".07"/>
    <ellipse cx="1320" cy="250" rx="230" ry="170" fill="#AA8CFF" fill-opacity=".035"/>
    <ellipse cx="1180" cy="820" rx="260" ry="150" fill="#F1D34F" fill-opacity=".025"/>
  </g>

  <path d="M-90 260C130 120 290 420 505 305C730 185 725 575 952 495C1130 432 1255 660 1690 420"
        stroke="url(#mintTrail)" stroke-width="1.4"/>
  <path d="M-70 292C150 152 304 452 520 337C746 217 741 607 969 527C1147 464 1272 692 1710 452"
        stroke="#72DDAE" stroke-opacity=".045" stroke-width=".7" stroke-dasharray="4 12"/>
  <path d="M1610 150C1380 195 1460 420 1230 410C970 398 1015 735 790 675C570 617 445 830 160 790C34 772 -80 820 -160 920"
        stroke="url(#warmTrail)" stroke-width="1"/>

  <g stroke="#DDE8E1" stroke-opacity=".075" stroke-width="1">
    <path d="M120 155h28M134 141v28"/>
    <path d="M1380 575h34M1397 558v34"/>
    <path d="M1020 190h20M1030 180v20"/>
    <path d="M590 760h26M603 747v26"/>
    <circle cx="442" cy="307" r="6"/>
    <circle cx="962" cy="496" r="5"/>
    <circle cx="1240" cy="641" r="7"/>
    <circle cx="715" cy="648" r="4"/>
  </g>

  <g fill="#72DDAE" fill-opacity=".16">
    <circle cx="505" cy="305" r="3"/>
    <circle cx="952" cy="495" r="3"/>
    <circle cx="1325" cy="574" r="3"/>
  </g>

  <g stroke="#DDE8E1" stroke-opacity=".04" stroke-width=".8">
    <path d="M80 865c80-38 150-24 224 10"/>
    <path d="M1290 115c52 14 92 42 123 83"/>
    <path d="M220 515c32 18 62 21 92 8"/>
    <path d="M1080 770c34-18 73-19 116-4"/>
  </g>

  <rect width="1600" height="1000" filter="url(#grain)" opacity=".34"/>
</svg>